<svg width="169" height="284" viewBox="0 0 169 284" fill="none" xmlns="http://www.w3.org/2000/svg">
<g filter="url(#filter0_d_4_14)">
<path d="M39.4827 205.374C9.72598 184.592 2.98499 146.014 4.15985 111.327C4.35245 105.549 3.71689 99.4245 6.47107 94.3591C9.22525 89.2937 15.6581 85.8077 20.839 88.2344C25.134 90.2567 27.0022 95.2643 29.4097 99.4052C32.6221 104.921 37.3295 109.414 42.988 112.367C46.6667 114.293 51.2313 115.449 54.8715 113.446C59.8791 110.692 60.4568 103.816 60.4183 98.0378C60.4183 87.2907 60.3541 76.5564 60.2257 65.835C59.8796 60.078 60.4649 54.3027 61.9591 48.7322C63.7503 43.2623 67.7371 38.1969 73.1877 36.6561C78.6383 35.1153 85.437 38.2932 86.6697 43.9172C86.8818 46.2992 86.9397 48.6924 86.843 51.0819C86.9971 53.4894 88.1142 56.128 90.3676 56.8599C92.621 57.5918 94.9708 55.9161 96.7042 54.2212C102.636 48.4432 106.681 40.9126 110.437 33.4782C114.192 26.0439 117.871 18.3976 123.264 12.0611C128.656 5.72455 136.11 0.697704 144.45 0.216204C152.789 -0.265296 161.476 4.85787 163.556 12.9471C165.636 21.0363 160.917 29.2988 155.852 35.8665C148.208 45.6153 139.198 54.2103 129.099 61.386C127.128 62.4623 125.555 64.1435 124.612 66.1817C123.36 70.0337 127 73.8857 130.794 75.0991C135.089 76.5243 139.75 76.0813 144.276 76.6206C148.802 77.1599 153.617 79.1244 155.332 83.3616C157.681 89.2552 152.751 95.4184 147.917 99.463C138.209 107.552 127.187 113.917 115.329 118.28C111.091 119.821 106.642 121.188 103.214 124.154C99.7857 127.12 97.7442 132.301 99.805 136.365C101.866 140.429 107.162 141.719 111.611 140.891C116.06 140.063 120.009 137.675 124.246 136.076C132.162 133.091 142.37 133.63 147.358 140.468C148.903 142.823 149.882 145.504 150.216 148.301C150.55 151.099 150.231 153.935 149.284 156.588C147.356 161.868 144.39 166.708 140.559 170.821C127.945 185.893 111.555 197.345 93.064 204.006C74.7092 210.362 57.7027 212.095 39.4635 205.412" fill="#C996CC"/>
<path d="M155.081 4.97342C155.081 4.97342 154.908 5.16602 154.523 5.5127L152.808 7.03422C151.306 8.38242 149.091 10.347 146.299 12.9471C138.381 20.2989 131.028 28.2373 124.304 36.6946C120.009 42.0297 115.56 48.0773 110.822 54.645C106.084 61.2126 101.192 68.3003 96.3382 75.831C91.1637 83.7722 86.4251 91.9891 82.1435 100.445C79.9093 104.856 77.9448 109.459 75.9225 114.158L69.9519 128.507C62.0818 146.581 55.2274 165.08 49.4208 183.918C44.7435 199.331 41.5194 215.149 39.7908 231.163C38.6706 241.97 38.4902 252.854 39.2515 263.693C39.5596 267.545 39.8486 270.492 40.1182 272.495C40.2338 273.458 40.3108 274.228 40.3878 274.787V275.576C40.3049 275.326 40.2469 275.068 40.2145 274.806C40.1182 274.248 40.0026 273.496 39.8485 272.533C39.5018 270.607 39.1359 267.564 38.7893 263.712C37.86 252.854 37.9245 241.933 38.9819 231.086C40.6033 215.003 43.7569 199.112 48.4 183.629C54.1579 164.738 60.9936 146.192 68.8734 128.083L74.998 113.792C77.0203 109.112 79.0041 104.471 81.2575 100.041C85.5689 91.5591 90.3463 83.3225 95.5677 75.3687C100.498 67.6647 105.467 60.6926 110.148 54.1827C114.828 47.6729 119.354 41.5867 123.63 36.2709C130.422 27.8359 137.874 19.953 145.913 12.6967C148.764 10.1351 151.037 8.20909 152.577 6.91867L154.369 5.47417C154.588 5.283 154.827 5.11518 155.081 4.97342Z" fill="#263238"/>
<path d="M81.5081 100.002C81.2364 99.2089 81.0492 98.389 80.9496 97.5563C80.6414 95.9577 80.2948 93.7043 79.8903 90.7767C79.0621 84.9987 78.2147 77.0829 77.3095 68.3196C76.4043 59.5563 75.3835 51.6212 74.5361 45.901C74.0931 43.0505 73.7079 40.7585 73.4382 39.16C73.2278 38.3418 73.1179 37.501 73.1108 36.6562C73.4425 37.4278 73.6817 38.2359 73.8234 39.0637C74.2472 40.643 74.7287 42.9157 75.2679 45.7854C76.3658 51.5634 77.4443 59.4215 78.3495 68.204C79.2547 76.9866 80.0251 84.6906 80.6222 90.6805C80.9111 93.3769 81.1615 95.6688 81.3541 97.4985C81.5037 98.3242 81.5554 99.1645 81.5081 100.002Z" fill="#263238"/>
<path d="M155.621 86.1737C154.683 86.3777 153.729 86.4938 152.77 86.5203C150.844 86.6937 148.109 86.9248 144.719 87.31C137.94 88.0419 128.618 89.3901 118.391 91.3161C108.164 93.2421 98.977 95.4184 92.3708 97.0941C89.0774 97.9415 86.4195 98.7119 84.6668 99.232C83.731 99.5645 82.7626 99.7969 81.7778 99.9253C82.6679 99.4777 83.596 99.1104 84.5512 98.8275C86.3617 98.1919 88.981 97.3059 92.2552 96.3622C98.8229 94.4362 108.01 92.1442 118.275 90.1797C126.971 88.5169 135.746 87.2956 144.565 86.5203C147.974 86.2314 150.729 86.1158 152.655 86.0773C153.644 86.01 154.638 86.0423 155.621 86.1737Z" fill="#263238"/>
<path d="M49.3437 182.281C49.1383 182.002 48.9701 181.698 48.843 181.376L47.5718 178.699C46.474 176.368 44.9909 172.921 43.219 168.703C39.6367 160.228 35.0721 148.364 30.2185 135.19C25.365 122.016 20.8967 110.152 17.507 101.582C15.8506 97.4215 14.4832 94.0125 13.4624 91.4702L12.3838 88.716C12.2343 88.3984 12.1306 88.0612 12.0757 87.7145C12.281 87.9933 12.4493 88.2976 12.5764 88.6197L13.8476 91.2969C14.9261 93.6273 16.4284 97.0749 18.2003 101.293C21.7827 109.767 26.3473 121.631 31.2008 134.805C36.0543 147.979 40.5227 159.843 43.9124 168.414C45.5688 172.574 46.9362 175.983 47.9377 178.525C48.3807 179.623 48.7467 180.451 49.0356 181.28C49.1851 181.597 49.2888 181.934 49.3437 182.281Z" fill="#263238"/>
<path d="M147.724 150.56C147.416 150.737 147.085 150.873 146.742 150.964L143.891 151.927L133.356 155.336C124.458 158.225 112.17 162.347 98.6881 166.892C85.2061 171.438 72.8604 175.482 63.9045 178.179C59.4362 179.546 55.796 180.586 53.273 181.28L50.3647 182.031C50.0265 182.138 49.6779 182.209 49.3247 182.243C49.6331 182.066 49.9633 181.93 50.3069 181.838L53.1574 180.875L63.6926 177.466C72.5908 174.577 84.8786 170.455 98.3606 165.91C111.843 161.365 124.169 157.32 133.125 154.624C137.612 153.256 141.233 152.216 143.776 151.523L146.684 150.772C147.022 150.664 147.371 150.593 147.724 150.56Z" fill="#263238"/>
</g>
<defs>
<filter id="filter0_d_4_14" x="0.034668" y="0.184967" width="168.024" height="283.391" filterUnits="userSpaceOnUse" color-interpolation-filters="sRGB">
<feFlood flood-opacity="0" result="BackgroundImageFix"/>
<feColorMatrix in="SourceAlpha" type="matrix" values="0 0 0 0 0 0 0 0 0 0 0 0 0 0 0 0 0 0 127 0" result="hardAlpha"/>
<feOffset dy="4"/>
<feGaussianBlur stdDeviation="2"/>
<feComposite in2="hardAlpha" operator="out"/>
<feColorMatrix type="matrix" values="0 0 0 0 0 0 0 0 0 0 0 0 0 0 0 0 0 0 0.25 0"/>
<feBlend mode="normal" in2="BackgroundImageFix" result="effect1_dropShadow_4_14"/>
<feBlend mode="normal" in="SourceGraphic" in2="effect1_dropShadow_4_14" result="shape"/>
</filter>
</defs>
</svg>
