<svg width="85" height="97" viewBox="0 0 85 97" fill="none" xmlns="http://www.w3.org/2000/svg">
<path d="M42.194 0.426413H41.4231L39.1924 0.590441C37.9853 0.662967 36.7848 0.82194 35.6004 1.06611C34.8332 1.17383 34.0723 1.32163 33.3205 1.50894L30.7783 2.21423C26.4512 3.54177 22.3686 5.56367 18.6901 8.2009C13.83 11.7286 9.77181 16.2452 6.78235 21.4536C5.02527 24.456 3.62699 27.6544 2.61627 30.9831C1.55424 34.6009 0.942759 38.3359 0.795678 42.1035C0.697927 44.0827 0.730798 46.0662 0.894085 48.041C0.894085 49.0415 1.17292 50.042 1.30413 51.059C1.4145 52.0841 1.60646 53.0987 1.87819 54.0933C3.35308 60.675 6.34568 66.8209 10.6173 72.0408C14.8889 77.2606 20.3212 81.41 26.481 84.1579C30.9392 86.0816 35.7176 87.1552 40.5702 87.3235C45.5821 87.5991 50.5991 86.88 55.3318 85.2076L56.7752 84.6664H56.972L57.1361 84.7648L77.8188 95.262L77.2119 95.7868C74.9977 88.9309 72.8654 82.2881 70.7988 75.9078V75.6618L70.9792 75.4813C75.9965 70.4278 79.7212 64.2388 81.8372 57.4393C83.7538 51.2229 84.3132 44.6675 83.4774 38.2163C82.734 32.483 80.8906 26.9472 78.0484 21.9129C75.5985 17.5882 72.4379 13.7069 68.6994 10.4316C65.6149 7.8391 62.2011 5.66613 58.5466 3.96922C55.7815 2.77661 52.9016 1.8698 49.952 1.26292L46.6717 0.721659L44.2934 0.541238L42.85 0.442831H42.358C42.5215 0.424685 42.6865 0.424685 42.85 0.442831H44.3098L46.6881 0.541238L49.9684 1.01688C52.9547 1.57933 55.8738 2.45343 58.6778 3.62479C62.3951 5.30153 65.8705 7.46951 69.011 10.0707C72.8183 13.3315 76.0459 17.2135 78.5569 21.552C81.4798 26.6405 83.3798 32.2513 84.1499 38.0687C85.055 44.6195 84.5347 51.2885 82.6245 57.6197C80.4946 64.5607 76.7124 70.8813 71.6025 76.039L71.7009 75.6125C73.7675 81.9929 75.9162 88.6356 78.1468 95.4752L78.4585 96.4757L77.5235 96L56.8408 85.5193H57.2016L55.7255 86.0605C50.9016 87.758 45.7918 88.4935 40.685 88.2256C35.7278 88.0368 30.8494 86.9243 26.3006 84.9452C17.6235 81.229 10.4042 74.7703 5.74903 66.5587C3.60681 62.7663 2.04234 58.6755 1.1073 54.4213C0.851252 53.4011 0.659522 52.3657 0.533242 51.3214C0.402027 50.2881 0.188807 49.2711 0.139601 48.2542C-0.304302 42.4182 0.312524 36.55 1.96021 30.9339C2.99609 27.5594 4.43333 24.3214 6.24109 21.2896C9.30187 16.0338 13.4446 11.4885 18.3949 7.95488C22.1339 5.31091 26.2851 3.30458 30.6798 2.01739L33.2549 1.36133C34.0129 1.18553 34.7793 1.04867 35.5512 0.951284C36.7479 0.72969 37.9596 0.598097 39.176 0.557631L41.4231 0.475641C41.6786 0.441229 41.9362 0.424764 42.194 0.426413Z" fill="#C996CC"/>
<path d="M51.543 38.6755H48.5086L41.9479 29.4577V23.4054C41.9479 23.4054 37.257 23.1101 37.8146 31.0322C38.3723 38.9543 37.8146 36.9369 37.8146 36.9369C37.8146 36.9369 27.8587 36.9369 27.0386 37.839C26.2185 38.7411 26.1693 48.3526 26.0545 53.716C25.9916 55.0089 26.3626 56.2858 27.1085 57.3437C27.8544 58.4017 28.9324 59.18 30.1713 59.5551C30.5186 59.6513 30.8771 59.701 31.2375 59.7027C33.7305 59.7027 46.4092 57.6853 46.4092 57.6853H51.6414L51.543 38.6755Z" fill="#C996CC"/>
<path d="M60.2195 37.0518L58.3497 57.7837H53.1667V37.4782L60.2195 37.0518Z" fill="#C996CC"/>
</svg>
