<svg width="170" height="200" viewBox="0 0 170 200" fill="none" xmlns="http://www.w3.org/2000/svg">
<g filter="url(#filter0_d_4_21)">
<path d="M117.586 40.37L107.667 43.9138L103.411 30.9518C95.5913 7.05018 70.6689 -5.64216 47.7687 2.42778C24.8686 10.4977 12.677 36.7106 20.4966 60.6122L24.753 73.5742L14.7956 77.1373C10.9987 78.61 7.9153 81.4893 6.1864 85.1767C4.4575 88.864 4.21606 93.0758 5.51229 96.9366L33.1118 181.276C33.6848 183.187 34.636 184.964 35.909 186.5C37.1821 188.037 38.7509 189.301 40.5224 190.219C42.2939 191.137 44.2318 191.69 46.2211 191.844C48.2103 191.999 50.2103 191.752 52.1022 191.118L154.893 154.351C158.74 152.88 161.867 149.976 163.616 146.247C165.366 142.519 165.601 138.257 164.272 134.359L136.654 50.0192C136.066 48.1134 135.1 46.3454 133.814 44.8209C132.528 43.2964 130.948 42.0466 129.169 41.1461C127.389 40.2455 125.446 39.7127 123.456 39.5793C121.466 39.446 119.47 39.7149 117.586 40.37ZM39.2365 53.852C37.1281 47.6372 37.5066 40.8476 40.2927 34.9056C43.0787 28.9637 48.0562 24.3305 54.1823 21.9767C57.2073 20.9417 60.4097 20.5267 63.5986 20.7563C66.7875 20.986 69.8974 21.8557 72.7429 23.3135C75.5883 24.7712 78.111 26.7872 80.1604 29.2412C82.2097 31.6952 83.7437 34.5368 84.6709 37.5965L88.9081 50.5585L43.4737 66.814L39.2365 53.852ZM97.0165 128.696L104.066 150.229C104.195 150.661 104.153 151.126 103.949 151.527C103.744 151.929 103.393 152.237 102.968 152.386L93.0875 155.911C92.6943 156.02 92.2741 155.972 91.9151 155.778C91.556 155.585 91.286 155.259 91.1615 154.871L84.0546 133.434C80.1358 133.221 76.3758 131.815 73.2779 129.406C70.18 126.996 67.8921 123.698 66.7206 119.952C65.0455 115 65.351 109.592 67.5732 104.861C69.7955 100.129 73.7621 96.4407 78.6425 94.5676C81.0522 93.7443 83.603 93.4146 86.1428 93.598C88.6826 93.7814 91.1595 94.4743 93.4259 95.6354C95.6922 96.7964 97.7016 98.4018 99.3344 100.356C100.967 102.31 102.19 104.573 102.929 107.01C104.169 110.814 104.271 114.898 103.224 118.76C102.177 122.623 100.027 126.096 97.0358 128.754L97.0165 128.696Z" fill="#C996CC"/>
<path d="M107.224 43.6827C107.224 43.9523 88.8309 50.8667 65.9501 59.0907C43.0692 67.3147 24.4062 73.9209 24.3099 73.7283C24.2136 73.5357 42.7032 66.5636 65.6033 58.3203C88.5035 50.077 107.128 43.4323 107.224 43.6827Z" fill="#263238"/>
<path d="M129.065 47.2265C129.15 47.3937 129.221 47.5676 129.277 47.7466C129.431 48.1318 129.605 48.6325 129.836 49.2488C130.336 50.6548 131.03 52.6001 131.896 55.0268L139.292 76.5595C142.374 85.6888 146.053 96.5129 150.136 108.531C152.062 114.56 154.334 120.838 156.453 127.444C157.587 130.849 158.077 134.434 157.897 138.018C157.734 139.882 157.204 141.695 156.337 143.353C155.412 145.006 154.176 146.464 152.697 147.648C149.722 149.82 146.419 151.504 142.913 152.637L132.994 156.2L114.216 162.921L82.4175 174.246L60.9426 181.796L55.1646 183.722L53.6238 184.223C53.459 184.296 53.2833 184.342 53.1038 184.358C53.1038 184.358 53.2578 184.358 53.5853 184.127L55.0875 183.53L60.8655 181.353L82.2249 173.495L113.965 161.939L132.705 155.16L142.624 151.577C146.03 150.491 149.237 148.858 152.119 146.743C153.495 145.644 154.646 144.291 155.509 142.756C156.325 141.223 156.817 139.538 156.954 137.806C157.131 134.353 156.661 130.898 155.567 127.618C153.487 121.069 151.291 114.733 149.308 108.704C145.301 96.667 141.604 85.8043 138.676 76.6751C135.748 67.5458 133.283 60.2078 131.588 55.0461C130.779 52.523 130.163 50.5585 129.662 49.1333L129.2 47.5925C129.142 47.4758 129.097 47.3531 129.065 47.2265Z" fill="#263238"/>
<path d="M74.8291 20.667C74.8291 20.667 73.8083 20.1662 71.9208 19.3958C69.2304 18.3621 66.3851 17.7891 63.5042 17.701C59.2342 17.5545 54.9848 18.3571 51.0623 20.0507C46.2924 22.1596 42.2137 25.5707 39.2945 29.8925C36.3557 34.202 34.7789 39.2948 34.7684 44.5109C34.8085 48.7861 35.457 53.0338 36.6944 57.1262C37.6959 60.6315 38.7359 63.4242 39.4293 65.3695C39.8383 66.3575 40.1731 67.3747 40.4308 68.4125C39.8837 67.4887 39.4258 66.5149 39.0633 65.5043C38.2737 63.5783 37.1374 60.8434 36.0203 57.3188C34.649 53.1834 33.9025 48.8666 33.8054 44.5109C33.754 39.0977 35.3677 33.7995 38.4278 29.334C41.4488 24.8543 45.6942 21.3377 50.6579 19.2032C54.7027 17.5003 59.0846 16.7492 63.4657 17.0076C66.409 17.1576 69.3004 17.8429 71.9979 19.0299C72.7191 19.3626 73.4145 19.7489 74.078 20.1855C74.3519 20.3059 74.6054 20.4683 74.8291 20.667Z" fill="#263238"/>
<path d="M75.7148 96.0314C76.0223 95.8451 76.3443 95.6841 76.6778 95.5499C77.6419 95.1148 78.6405 94.7605 79.6632 94.4906C81.2865 94.0115 82.961 93.727 84.6515 93.6431C86.9509 93.5196 89.2514 93.8669 91.4118 94.6639C96.3424 96.3973 100.868 101.424 103.103 108.146C104.174 111.753 104.174 115.594 103.103 119.201C101.915 123.116 99.7852 126.681 96.9009 129.582L97.0164 129.062C99.578 136.092 102.371 143.719 105.26 151.674L105.433 152.155L104.952 152.328L100.541 153.792L90.911 157.009L90.4295 157.163L90.2754 156.681C87.6368 148.707 84.7478 141.273 82.5714 133.974L82.9951 134.301C79.2299 133.988 75.6398 132.575 72.6718 130.237C69.9864 128.169 67.7845 125.54 66.2196 122.533C64.8076 119.867 64.1046 116.882 64.1781 113.866C64.2672 110.783 65.0369 107.759 66.432 105.008C67.8272 102.258 69.8133 99.8502 72.248 97.9574C73.2503 97.1438 74.3748 96.4938 75.58 96.0314C74.4921 96.6769 73.4378 97.3776 72.4214 98.1307C69.7469 100.394 67.6977 103.305 66.47 106.586C65.4163 109.06 64.9234 111.737 65.0266 114.424C65.1299 117.111 65.8267 119.743 67.0671 122.129C68.6058 125.021 70.7547 127.545 73.3651 129.525C76.1965 131.747 79.6194 133.086 83.207 133.377H83.5344L83.6307 133.665C85.7493 140.83 88.6576 148.322 91.3347 156.334L90.6991 156.026L100.329 152.81L104.72 151.327L104.412 151.982C101.543 144.027 98.7691 136.381 96.2268 129.351V129.062L96.4579 128.831C99.2579 126.05 101.346 122.634 102.544 118.874C103.566 115.423 103.566 111.751 102.544 108.3C100.445 101.829 96.1112 96.9173 91.4118 95.1839C89.3316 94.3818 87.1107 94.0084 84.8826 94.0861C83.2189 94.1242 81.5649 94.3504 79.952 94.7602C77.0823 95.4728 75.7341 96.1277 75.7148 96.0314Z" fill="#263238"/>
</g>
<defs>
<filter id="filter0_d_4_21" x="0.688965" y="0" width="168.434" height="199.889" filterUnits="userSpaceOnUse" color-interpolation-filters="sRGB">
<feFlood flood-opacity="0" result="BackgroundImageFix"/>
<feColorMatrix in="SourceAlpha" type="matrix" values="0 0 0 0 0 0 0 0 0 0 0 0 0 0 0 0 0 0 127 0" result="hardAlpha"/>
<feOffset dy="4"/>
<feGaussianBlur stdDeviation="2"/>
<feComposite in2="hardAlpha" operator="out"/>
<feColorMatrix type="matrix" values="0 0 0 0 0 0 0 0 0 0 0 0 0 0 0 0 0 0 0.25 0"/>
<feBlend mode="normal" in2="BackgroundImageFix" result="effect1_dropShadow_4_21"/>
<feBlend mode="normal" in="SourceGraphic" in2="effect1_dropShadow_4_21" result="shape"/>
</filter>
</defs>
</svg>
